<mxfile host="app.diagrams.net" modified="2023-09-12T17:49:18.036Z" agent="Mozilla/5.0 (Windows NT 10.0; Win64; x64) AppleWebKit/537.36 (KHTML, like Gecko) Chrome/116.0.0.0 Safari/537.36" version="21.7.4" etag="8HiwIQYB0q76jH3cR0I-" type="github">
  <diagram name="Side-1" id="a24v8kNm7KeV3rA15APc">
    <mxGraphModel>
      <root>
        <mxCell id="0" />
        <mxCell id="1" parent="0" />
      </root>
    </mxGraphModel>
  </diagram>
</mxfile>
